<svg xmlns="http://www.w3.org/2000/svg" viewBox="0 0 64 64" role="img" aria-labelledby="title desc">
  <title id="title">Remove chat timeout</title>
  <desc id="desc">A chat bubble combined with a clock and restore arrow.</desc>
  <defs>
    <linearGradient id="bg" x1="8" y1="8" x2="56" y2="56" gradientUnits="userSpaceOnUse">
      <stop stop-color="#45b979"/>
      <stop offset="1" stop-color="#17613c"/>
    </linearGradient>
  </defs>
  <rect x="3" y="3" width="58" height="58" rx="15" fill="url(#bg)"/>
  <path d="M16 18h24a8 8 0 0 1 8 8v10a8 8 0 0 1-8 8H29l-9 7v-7h-4a8 8 0 0 1-8-8V26a8 8 0 0 1 8-8Z" fill="#fff" opacity=".96"/>
  <circle cx="40" cy="39" r="13" fill="#0c2f20" stroke="#fff" stroke-width="3"/>
  <path d="M40 31v8l5 3" fill="none" stroke="#fff" stroke-width="3.2" stroke-linecap="round" stroke-linejoin="round"/>
  <path d="M48.5 30.5a12 12 0 0 0-15.5-2.2l-3.2 2.2" fill="none" stroke="#9ff0bf" stroke-width="3" stroke-linecap="round"/>
  <path d="M29.8 24.8v5.7h5.7" fill="none" stroke="#9ff0bf" stroke-width="3" stroke-linecap="round" stroke-linejoin="round"/>
</svg>