<svg xmlns="http://www.w3.org/2000/svg" viewBox="0 0 64 64" role="img" aria-label="Furry award">
<defs><linearGradient id="g" x1="12" y1="8" x2="54" y2="58" gradientUnits="userSpaceOnUse"><stop stop-color="#ffcf57"/><stop offset=".48" stop-color="#ff6f91"/><stop offset="1" stop-color="#8d5cff"/></linearGradient></defs>
<path fill="url(#g)" d="M32 28c-8.7 0-18.8 8.8-18.8 18.4 0 6.4 4.8 10.3 10.4 8.2 3.4-1.3 5.4-3 8.4-3s5 1.7 8.4 3c5.6 2.1 10.4-1.8 10.4-8.2C50.8 36.8 40.7 28 32 28Z"/>
<ellipse cx="17.2" cy="25.2" rx="7" ry="9.2" transform="rotate(-22 17.2 25.2)" fill="url(#g)"/>
<ellipse cx="29.4" cy="17.2" rx="6.5" ry="9.4" transform="rotate(-5 29.4 17.2)" fill="url(#g)"/>
<ellipse cx="46.8" cy="25.2" rx="7" ry="9.2" transform="rotate(22 46.8 25.2)" fill="url(#g)"/>
<ellipse cx="40" cy="17.2" rx="6.5" ry="9.4" transform="rotate(7 40 17.2)" fill="url(#g)"/>
<path d="M31.8 34.5c3.1-3.2 7.5-1.3 7.5 2.5 0 4.1-7.5 8.4-7.5 8.4s-7.4-4.3-7.4-8.4c0-3.8 4.3-5.7 7.4-2.5Z" fill="#fff" fill-opacity=".9"/>
</svg>
